<mxfile host="app.diagrams.net" agent="Mozilla/5.0 (Macintosh; Intel Mac OS X 10_15_7) AppleWebKit/537.36 (KHTML, like Gecko) Chrome/132.0.0.0 Safari/537.36" version="26.0.11">
  <diagram name="Page-1" id="5f0bae14-7c28-e335-631c-24af17079c00">
    <mxGraphModel dx="984" dy="607" grid="1" gridSize="10" guides="1" tooltips="1" connect="1" arrows="1" fold="1" page="1" pageScale="1" pageWidth="1100" pageHeight="850" background="none" math="0" shadow="0">
      <root>
        <mxCell id="0" />
        <mxCell id="1" parent="0" />
        <mxCell id="hUGraTTiiIYDoasSvpjc-1" value="" style="rounded=1;whiteSpace=wrap;html=1;strokeWidth=1;" parent="1" vertex="1">
          <mxGeometry x="30" y="150" width="250" height="170" as="geometry" />
        </mxCell>
        <mxCell id="hUGraTTiiIYDoasSvpjc-6" value="Header" style="rounded=1;whiteSpace=wrap;html=1;" parent="1" vertex="1">
          <mxGeometry x="42.5" y="170" width="225" height="40" as="geometry" />
        </mxCell>
        <mxCell id="L1TAeS7wLeBHiriWUBnC-2" style="edgeStyle=orthogonalEdgeStyle;rounded=0;orthogonalLoop=1;jettySize=auto;html=1;exitX=0.5;exitY=1;exitDx=0;exitDy=0;entryX=0.5;entryY=0;entryDx=0;entryDy=0;" edge="1" parent="1" source="hUGraTTiiIYDoasSvpjc-7" target="hUGraTTiiIYDoasSvpjc-12">
          <mxGeometry relative="1" as="geometry" />
        </mxCell>
        <mxCell id="hUGraTTiiIYDoasSvpjc-7" value="Filters" style="rounded=1;whiteSpace=wrap;html=1;" parent="1" vertex="1">
          <mxGeometry x="42.5" y="220" width="57.5" height="60" as="geometry" />
        </mxCell>
        <mxCell id="hUGraTTiiIYDoasSvpjc-40" style="edgeStyle=orthogonalEdgeStyle;rounded=0;orthogonalLoop=1;jettySize=auto;html=1;exitX=1;exitY=0.5;exitDx=0;exitDy=0;entryX=0;entryY=0.5;entryDx=0;entryDy=0;" parent="1" source="hUGraTTiiIYDoasSvpjc-8" target="hUGraTTiiIYDoasSvpjc-31" edge="1">
          <mxGeometry relative="1" as="geometry" />
        </mxCell>
        <mxCell id="hUGraTTiiIYDoasSvpjc-8" value="SingleProduct" style="rounded=1;whiteSpace=wrap;html=1;strokeWidth=1;" parent="1" vertex="1">
          <mxGeometry x="107.5" y="220" width="160" height="80" as="geometry" />
        </mxCell>
        <mxCell id="L1TAeS7wLeBHiriWUBnC-3" style="edgeStyle=orthogonalEdgeStyle;rounded=0;orthogonalLoop=1;jettySize=auto;html=1;exitX=1;exitY=0.5;exitDx=0;exitDy=0;entryX=0;entryY=0.5;entryDx=0;entryDy=0;" edge="1" parent="1" source="hUGraTTiiIYDoasSvpjc-9" target="hUGraTTiiIYDoasSvpjc-13">
          <mxGeometry relative="1" as="geometry" />
        </mxCell>
        <mxCell id="hUGraTTiiIYDoasSvpjc-9" value="" style="rounded=1;whiteSpace=wrap;html=1;fillColor=none;" parent="1" vertex="1">
          <mxGeometry x="320" y="170" width="300" height="40" as="geometry" />
        </mxCell>
        <mxCell id="hUGraTTiiIYDoasSvpjc-10" value="Search Bar" style="rounded=1;whiteSpace=wrap;html=1;" parent="1" vertex="1">
          <mxGeometry x="330" y="178" width="170" height="25" as="geometry" />
        </mxCell>
        <mxCell id="hUGraTTiiIYDoasSvpjc-11" value="Cart" style="rounded=1;whiteSpace=wrap;html=1;" parent="1" vertex="1">
          <mxGeometry x="510" y="179" width="100" height="25" as="geometry" />
        </mxCell>
        <mxCell id="hUGraTTiiIYDoasSvpjc-12" value="1. Ascending Price&lt;div&gt;2. Descending Price&lt;/div&gt;&lt;div&gt;3. Include out of stocks delivery&lt;/div&gt;&lt;div&gt;4. Category&lt;/div&gt;" style="rounded=1;whiteSpace=wrap;html=1;align=left;" parent="1" vertex="1">
          <mxGeometry x="30" y="350" width="182" height="111" as="geometry" />
        </mxCell>
        <mxCell id="hUGraTTiiIYDoasSvpjc-13" value="&lt;div&gt;&lt;br&gt;&lt;/div&gt;&lt;div&gt;&lt;br&gt;&lt;/div&gt;&lt;div&gt;&lt;br&gt;&lt;/div&gt;&lt;div&gt;&lt;br&gt;&lt;/div&gt;Check Out Process" style="rounded=1;whiteSpace=wrap;html=1;" parent="1" vertex="1">
          <mxGeometry x="690" y="150.5" width="190" height="80" as="geometry" />
        </mxCell>
        <mxCell id="hUGraTTiiIYDoasSvpjc-14" value="Item List" style="rounded=1;whiteSpace=wrap;html=1;" parent="1" vertex="1">
          <mxGeometry x="700" y="160.5" width="80" height="40" as="geometry" />
        </mxCell>
        <mxCell id="hUGraTTiiIYDoasSvpjc-15" value="Sub Total" style="rounded=1;whiteSpace=wrap;html=1;" parent="1" vertex="1">
          <mxGeometry x="800" y="160.5" width="70" height="40" as="geometry" />
        </mxCell>
        <mxCell id="hUGraTTiiIYDoasSvpjc-16" value="" style="rounded=1;whiteSpace=wrap;html=1;" parent="1" vertex="1">
          <mxGeometry x="712.5" y="271" width="145" height="190" as="geometry" />
        </mxCell>
        <mxCell id="hUGraTTiiIYDoasSvpjc-17" value="Order Summary" style="rounded=1;whiteSpace=wrap;html=1;" parent="1" vertex="1">
          <mxGeometry x="725" y="283" width="120" height="45" as="geometry" />
        </mxCell>
        <mxCell id="hUGraTTiiIYDoasSvpjc-18" value="Pay with Paypal" style="rounded=1;whiteSpace=wrap;html=1;" parent="1" vertex="1">
          <mxGeometry x="725" y="410" width="120" height="30" as="geometry" />
        </mxCell>
        <mxCell id="hUGraTTiiIYDoasSvpjc-20" value="Pay with Stripe" style="rounded=1;whiteSpace=wrap;html=1;" parent="1" vertex="1">
          <mxGeometry x="725" y="372" width="120" height="30" as="geometry" />
        </mxCell>
        <mxCell id="hUGraTTiiIYDoasSvpjc-21" value="Shipping Info" style="rounded=1;whiteSpace=wrap;html=1;" parent="1" vertex="1">
          <mxGeometry x="725" y="333" width="120" height="30" as="geometry" />
        </mxCell>
        <mxCell id="hUGraTTiiIYDoasSvpjc-23" value="" style="html=1;verticalAlign=bottom;endArrow=block;curved=0;rounded=0;entryX=0;entryY=0.5;entryDx=0;entryDy=0;" parent="1" target="hUGraTTiiIYDoasSvpjc-9" edge="1">
          <mxGeometry width="80" relative="1" as="geometry">
            <mxPoint x="267.5" y="191" as="sourcePoint" />
            <mxPoint x="347.5" y="191" as="targetPoint" />
          </mxGeometry>
        </mxCell>
        <mxCell id="hUGraTTiiIYDoasSvpjc-30" value="" style="html=1;verticalAlign=bottom;endArrow=block;curved=0;rounded=0;exitX=0.5;exitY=1;exitDx=0;exitDy=0;entryX=0.5;entryY=0;entryDx=0;entryDy=0;" parent="1" source="hUGraTTiiIYDoasSvpjc-13" target="hUGraTTiiIYDoasSvpjc-16" edge="1">
          <mxGeometry width="80" relative="1" as="geometry">
            <mxPoint x="820" y="290" as="sourcePoint" />
            <mxPoint x="900" y="290" as="targetPoint" />
          </mxGeometry>
        </mxCell>
        <mxCell id="hUGraTTiiIYDoasSvpjc-31" value="" style="rounded=1;whiteSpace=wrap;html=1;" parent="1" vertex="1">
          <mxGeometry x="355" y="341" width="120" height="120" as="geometry" />
        </mxCell>
        <mxCell id="hUGraTTiiIYDoasSvpjc-42" style="edgeStyle=orthogonalEdgeStyle;rounded=0;orthogonalLoop=1;jettySize=auto;html=1;exitX=1;exitY=0.5;exitDx=0;exitDy=0;entryX=0;entryY=0.5;entryDx=0;entryDy=0;" parent="1" source="hUGraTTiiIYDoasSvpjc-34" target="hUGraTTiiIYDoasSvpjc-41" edge="1">
          <mxGeometry relative="1" as="geometry" />
        </mxCell>
        <mxCell id="hUGraTTiiIYDoasSvpjc-34" value="Image" style="rounded=1;whiteSpace=wrap;html=1;" parent="1" vertex="1">
          <mxGeometry x="380" y="354" width="70" height="30" as="geometry" />
        </mxCell>
        <mxCell id="hUGraTTiiIYDoasSvpjc-36" value="Info" style="rounded=1;whiteSpace=wrap;html=1;" parent="1" vertex="1">
          <mxGeometry x="380" y="391" width="70" height="20" as="geometry" />
        </mxCell>
        <mxCell id="hUGraTTiiIYDoasSvpjc-38" value="Add Product" style="rounded=1;whiteSpace=wrap;html=1;" parent="1" vertex="1">
          <mxGeometry x="380" y="421" width="70" height="20" as="geometry" />
        </mxCell>
        <mxCell id="hUGraTTiiIYDoasSvpjc-41" value="" style="rounded=1;whiteSpace=wrap;html=1;" parent="1" vertex="1">
          <mxGeometry x="530" y="341" width="120" height="120" as="geometry" />
        </mxCell>
        <mxCell id="L1TAeS7wLeBHiriWUBnC-1" value="Detailed Product&amp;nbsp;&lt;div&gt;Descriptions&lt;/div&gt;" style="rounded=1;whiteSpace=wrap;html=1;" vertex="1" parent="1">
          <mxGeometry x="540" y="368" width="100" height="67" as="geometry" />
        </mxCell>
      </root>
    </mxGraphModel>
  </diagram>
</mxfile>
